<?xml version="1.0" encoding="UTF-8" standalone="no"?>
<svg
   xmlns:dc="http://purl.org/dc/elements/1.1/"
   xmlns:cc="http://creativecommons.org/ns#"
   xmlns:rdf="http://www.w3.org/1999/02/22-rdf-syntax-ns#"
   xmlns:svg="http://www.w3.org/2000/svg"
   xmlns="http://www.w3.org/2000/svg"
   xmlns:sodipodi="http://sodipodi.sourceforge.net/DTD/sodipodi-0.dtd"
   xmlns:inkscape="http://www.inkscape.org/namespaces/inkscape"
   inkscape:version="1.0 (4035a4f, 2020-05-01)"
   sodipodi:docname="Logo Mantes-la-Jolie.svg"
   viewBox="0 0 600.00006 716.40038"
   height="716.40039"
   width="600.00006"
   xml:space="preserve"
   id="svg833"
   version="1.1"><metadata
     id="metadata839"><rdf:RDF><cc:Work
         rdf:about=""><dc:format>image/svg+xml</dc:format><dc:type
           rdf:resource="http://purl.org/dc/dcmitype/StillImage" /><dc:title></dc:title></cc:Work></rdf:RDF></metadata><defs
     id="defs837" /><sodipodi:namedview
     inkscape:current-layer="g841"
     inkscape:window-maximized="0"
     inkscape:window-y="0"
     inkscape:window-x="0"
     inkscape:cy="184.83142"
     inkscape:cx="294.22054"
     inkscape:zoom="0.71685805"
     showgrid="false"
     id="namedview835"
     inkscape:window-height="900"
     inkscape:window-width="1440"
     inkscape:pageshadow="2"
     inkscape:pageopacity="0"
     guidetolerance="10"
     gridtolerance="10"
     objecttolerance="10"
     borderopacity="1"
     bordercolor="#666666"
     pagecolor="#ffffff" /><g
     transform="matrix(1.3333333,0,0,-1.3333333,-19.401733,977.1477)"
     inkscape:label="Logo Mantes-la-Jolie"
     inkscape:groupmode="layer"
     id="g841"><g
       style="fill:#1e3f98;fill-opacity:1"
       id="g1186"><g
         style="fill:#1e3f98;fill-opacity:1"
         id="g1171"><path
           transform="matrix(0.75000002,0,0,-0.75000002,14.551304,732.8608)"
           d="m 106.9375,521.10547 c -5.42165,0.16976 -13.941649,7.67057 -21.792969,18.2168 -7.755832,10.57806 -14.408947,24.28512 -14.546875,37.04882 v 0.0742 c -0.02123,1.74003 0.573462,3.15174 1.6875,4.04297 1.092819,0.88061 2.545814,1.19922 4.105469,1.19922 6.323496,-0.0743 15.544338,-5.01805 18.865234,-8.42383 2.06893,-2.19625 3.913873,-3.76776 4.603516,-4.33008 0.286465,0.0212 0.712005,0.0332 1.189455,0.0332 1.05038,0 2.35582,-0.0644 3.48047,-0.45703 0.9655,-0.29708 3.25565,-0.94497 3.55273,-3.50196 2.28113,-1.2944 4.92352,-1.96178 6.62109,-1.95117 1.01855,-0.0212 1.4961,0.29604 1.4961,0.30664 h 0.0117 l -0.0332,0.0117 c 0.0107,0.0743 0.0332,0.2122 0.0332,0.39258 0.0212,2.91772 -2.72767,13.0914 -2.73828,19.01172 0,1.25197 0.1069,2.3462 0.45703,3.24804 0.31829,0.87002 1.09131,1.71869 2.22656,1.79297 0.41379,0.0212 0.82757,0.043 1.25195,0.043 12.39236,-0.0848 27.48068,-12.27649 27.57618,-12.28711 l -1.00782,-1.50586 c 0,0 -3.65031,1.44267 -7.87304,2.875 -4.19091,1.45356 -9.08183,2.87473 -11.02344,2.85352 -0.0319,0 -0.0948,-0.01 -0.17969,-0.01 -2.68429,-0.27585 -3.67261,-0.6803 -3.81055,-3.4707 0,-0.61537 0.0744,-1.34763 0.24414,-2.20703 0.77452,-3.94688 3.91544,-11.75563 3.94727,-16.20117 0.0531,-1.58087 -0.51905,-3.3531 -2.43945,-3.55469 -0.27586,-0.0319 -0.55143,-0.0312 -0.83789,-0.0312 -4.01055,0.0319 -9.04126,2.3875 -11.56641,3.70312 0.16976,-0.6472 0.49955,-1.45425 1.16797,-2.25 1.42172,-1.78246 5.58113,-6.33278 5.66601,-10.15234 0,-0.25464 -0.0326,-0.49927 -0.0644,-0.75391 -0.2228,-0.92305 -0.99759,-1.24204 -1.66601,-1.46484 -0.71087,-0.20159 -1.54822,-0.28626 -2.43946,-0.29687 -1.931,0.0107 -4.1488,0.38294 -5.66601,1.4121 -3.14053,2.21747 -12.051843,9.97307 -12.136722,18.38672 v 0.50977 c 0.08488,1.14587 0.561454,2.38541 0.869141,3.06445 -1.761242,1.69758 -9.835921,7.23702 -12.732422,7.05664 -0.08488,0 -0.179901,-0.0206 -0.275391,-0.0312 -2.153808,-0.40318 -3.204132,-0.5946 -3.363281,-4.26562 0,-1.931 0.488583,-4.81753 1.6875,-8.90235 1.920391,-6.48264 5.823558,-14.6828 10.078125,-21.19726 4.03176,-6.35534 8.77478,-11.00439 11.31055,-11.1211 v 0.0117 h 0.24414 c 0.41378,-0.0212 0.80639,0.31818 1.17773,1.40039 0.32891,1.01855 0.44531,2.47265 0.44531,3.72461 0,1.57027 -0.16881,2.84375 -0.1582,2.84375 l -0.11719,0.95313 1.0293,0.043 h 0.16992 c 1.94161,-0.0424 3.59733,-1.37886 4.90235,-3.09766 1.30501,-1.76124 2.23828,-4.00962 2.23828,-6.26953 0.0318,-2.39784 -1.18912,-4.87187 -4.13867,-6.1875 -0.5305,-0.23341 -1.12376,-0.33789 -1.72852,-0.33789 z m 1.49609,29.30469 c 0.67904,0.12733 0.41259,-0.0438 0.5293,0.35937 0,0.10613 -0.0198,0.22255 -0.041,0.37109 -0.25464,1.10343 -0.47776,1.82505 -1.5918,4.71094 -0.93367,2.37662 -1.4231,3.61914 -3.32227,3.61914 -0.1167,0 -0.2538,-0.0117 -0.40234,-0.0117 l -0.0742,0.89258 v -0.90234 c -0.0849,-0.0212 -0.095,0.0208 -0.27539,-0.26563 -0.15915,-0.28646 -0.27539,-0.83887 -0.27539,-1.46484 0,-1.11404 0.32777,-2.47068 0.84765,-3.33008 1.90978,-3.19358 2.94959,-3.86349 4.4668,-3.95898 0.0743,-0.0212 0.12806,-0.0195 0.13867,-0.0195 z"
           style="fill:#1e3f98;fill-opacity:1;fill-rule:nonzero;stroke:none;stroke-width:10.6099"
           id="path913" /><path
           transform="matrix(0.75000002,0,0,-0.75000002,14.551304,732.8608)"
           d="m 395.98242,497.38086 c -8.53034,0.10613 -20.06436,9.33607 -30.47265,18.98047 -10.32343,9.64438 -19.31912,19.86302 -21.49415,21.8789 -5.29433,4.96543 -4.88043,7.03412 -11.66015,9.37891 -8.12717,2.84345 -16.16043,4.05301 -16.18164,4.07422 l -10.06836,0.74219 -4.76367,6.9707 0.94531,0.44531 c 0.0107,0.0212 2.17368,1.01861 6.07812,3.60742 3.00259,1.98406 4.44615,4.23401 4.43555,6.00586 0,0.45623 -0.0958,0.89116 -0.26562,1.32618 -1.01855,2.16441 -2.91653,5.86798 -10.78907,5.93164 -1.01856,0 -2.16489,-0.0866 -3.40625,-0.22461 -5.64445,-0.49867 -8.52068,-8.55094 -8.45703,-13.6543 -0.0424,-1.64453 0.34049,-2.94876 0.62696,-3.22461 1.36868,-1.62332 1.27334,-3.23605 1.81445,-4.4668 0.51988,-1.23074 1.44142,-2.48341 5.12305,-3.89453 1.6127,-0.61537 3.06808,-0.82812 4.29882,-0.82812 1.20952,0 2.20574,0.21332 2.88477,0.40429 0.67904,0.20159 0.98633,0.3711 0.98633,0.3711 l 0.60547,0.30664 0.50976,-0.42383 5.80274,-4.79492 -0.65821,-0.66797 c -0.0955,-0.0319 -2.59792,-2.74942 -6.30078,-2.78125 -0.44561,-0.0107 -0.90342,0.0326 -1.38086,0.13867 -6.11129,1.33686 -24.33784,9.14511 -24.41211,27.5957 -0.0212,6.35532 2.45053,10.35591 5.84571,12.58399 3.38454,2.24929 7.51139,2.80078 10.85351,2.80078 3.0132,0 5.41188,-0.45609 6.17578,-0.61523 2.4615,-0.59416 7.92531,-2.75926 11.09766,-5.14649 1.47479,-1.12465 3.66084,-2.37631 5.51758,-3.73437 1.78246,-1.32624 3.42652,-2.72551 3.56445,-4.67774 0.12733,-0.42438 0.1582,-0.8917 0.1582,-1.36914 -0.0319,-3.73468 -2.6831,-9.61277 -3.81836,-12 l 10.875,-1.86719 c -0.82757,2.40846 -2.32337,7.37348 -2.33398,11.2461 0.0107,1.7294 0.26407,3.31116 1.31445,4.45703 2.11136,2.19625 5.5381,3.4043 10.23828,3.4043 11.72394,-0.0424 31.86177,-7.31992 63.22461,-27.18164 -4.15908,5.71873 -11.06551,16.11589 -11.15039,22.51367 -0.0424,2.09014 0.88104,4.07451 3.08789,4.88086 0.83819,0.31829 1.73932,0.46679 2.6836,0.46679 10.14305,-0.15914 26.29205,-15.91452 30.91797,-18.92773 3.14052,-2.09015 7.91406,-5.49609 7.91406,-5.49609 l 2.08984,-1.48633 -2.61914,-0.11524 c -0.0424,-0.0107 -0.0965,-0.0117 -0.16015,-0.0117 -5.98399,0.0424 -12.60376,4.3509 -18.41797,8.60547 -3.52248,2.65247 -6.89766,5.33647 -9.26368,7.02344 -0.0107,0 -0.0206,2.9e-4 -0.0312,0.0215 -0.3077,0.2122 -0.56203,0.38213 -0.8379,0.5625 -0.14853,0.0955 -0.32887,0.21117 -0.46679,0.30665 -0.19099,0.11666 -0.3389,0.19051 -0.49805,0.27539 -0.16976,0.10613 -0.37295,0.22456 -0.52148,0.29882 -0.11667,0.0531 -0.18967,0.0521 -0.28516,0.084 -0.13792,0.0636 -0.29819,0.12722 -0.4043,0.14844 -0.23341,0.0212 -0.44405,0.043 -0.65625,0.043 -1.54904,-0.0637 -1.98401,-0.75393 -2.11133,-2.79102 -0.0107,-3.04504 2.06733,-8.05259 4.80469,-11.56445 2.30235,-3.01322 5.01976,-6.4927 7.15235,-9.43164 2.1432,-3.05564 3.72424,-5.10447 3.85156,-6.58985 0.0107,-0.27586 -0.0962,-0.74171 -0.60547,-1.01758 l -0.0742,-0.043 -0.0644,-0.0215 c -0.11667,-0.0319 -0.27528,-0.0625 -0.42383,-0.0625 -1.20952,0.0849 -2.8749,0.98532 -5.91992,2.4707 -8.83805,4.40311 -26.31341,13.92006 -40.5625,19.88282 -12.08467,5.07152 -19.72266,8.89205 -25.04883,8.84961 -2.28112,0 -4.15915,-0.62537 -6.03711,-2.14258 -0.65781,-0.5199 -1.08203,-1.65662 -1.08203,-3.17383 -0.0319,-3.62859 2.3659,-8.98577 5.08203,-11.05469 5.33677,-4.2864 22.93832,-10.57894 30.75781,-14.7168 3.4376,-1.8249 10.99203,-6.74684 17.79297,-12.60351 6.75851,-5.89909 12.84846,-12.58328 12.91211,-18.55664 0.0212,-2.18564 -0.92357,-4.29662 -2.93945,-5.91992 -1.51722,-1.24136 -3.38424,-1.81529 -5.37891,-1.80469 z m -3.23633,7.25781 c 0.59416,0 1.09286,0.10567 1.57032,0.27539 0.33952,0.11667 0.66888,0.29699 0.97656,0.54102 0.23341,0.19097 0.45604,0.4136 0.68945,0.68945 0.5305,0.67904 0.76367,1.40037 0.76367,2.25977 0.14854,4.63652 -8.12629,12.23372 -14.02539,16.48828 -4.88054,3.62858 -25.62341,13.24127 -28.78515,14.18554 -0.94428,0.29708 -1.62301,0.42326 -2.08985,0.45508 2.18564,-2.84345 8.75265,-10.98008 17.58008,-18.9375 3.38456,-3.12992 11.14046,-10.63129 17.54883,-14.11132 0.0743,-0.0424 0.1375,-0.0736 0.20117,-0.10547 0.45621,-0.25464 0.91376,-0.47895 1.35938,-0.66993 0.11666,-0.0637 0.24266,-0.0953 0.35937,-0.14843 0.38195,-0.15915 0.76427,-0.318 1.125,-0.44532 0.14855,-0.0424 0.287,-0.0748 0.43555,-0.11718 0.3289,-0.0955 0.65716,-0.19109 0.96484,-0.24414 0.14855,-0.0424 0.287,-0.0421 0.43555,-0.0527 0.30768,-0.0319 0.61477,-0.0732 0.89062,-0.0625 z"
           style="fill:#1e3f98;fill-opacity:1;fill-rule:nonzero;stroke:none;stroke-width:10.6099"
           id="path1159" /><path
           transform="matrix(0.75000002,0,0,-0.75000002,14.551304,732.8608)"
           d="m 236.79102,454.62305 c -1.57027,0 -3.1184,0.10645 -4.625,0.33984 -22.64151,3.37395 -60.80484,38.91745 -63.8711,64.7207 -0.0955,0.82758 -0.13867,1.62365 -0.13867,2.37696 -0.0424,6.11129 3.00183,10.13241 7.29883,12.37109 4.2864,2.27052 9.76098,2.94922 14.94922,2.94922 7.99985,0 15.31059,-1.61239 16.88086,-2.08984 4.24396,-1.51722 4.50887,-7.00249 4.59375,-7.04493 l 0.1289,-1.21093 -1.28515,0.24414 c -0.0107,0 -5.48411,1.00781 -12.04102,1.00781 -8.64707,0.0107 -18.6002,-1.82334 -20.60547,-9.27149 -0.3289,-1.1883 -0.49805,-2.4302 -0.49805,-3.7246 -0.0531,-9.50647 8.94294,-21.68613 19.01172,-31.52149 9.98392,-9.82476 21.306,-17.47526 24.70118,-18.1543 2.23868,-0.48805 5.66561,-1.14648 9.54882,-1.14648 12.45602,0.10613 30.23837,6.29274 30.94922,48.48828 v 1.19922 c 0,16.51961 -4.59507,32.58192 -11.67187,47.92383 -0.40318,0.10613 -0.79552,0.22371 -1.15625,0.30859 -24.668,7.69218 -72.31688,33.02767 -97.88672,44.87891 -19.61769,9.07146 -45.79131,24.7219 -67.117189,41.42187 -21.294054,16.76363 -37.867401,34.38514 -37.96289,48.19922 -0.04244,8.09536 5.983363,14.61117 19.373047,18.12305 3.522485,0.94428 7.299743,1.38867 11.289062,1.38867 38.34415,-0.0743 96.99664,-40.76154 137.21875,-87.81641 17.47449,-20.47709 31.75386,-41.31504 42.08789,-60.55078 l 0.25586,-0.0859 c 2.04771,-0.6366 4.09428,-1.30508 6.17383,-1.96289 6.74789,-1.931 8.88086,-2.3125 8.88086,-2.3125 l 0.33984,-0.0645 7.66016,-8.80664 -2.84375,0.70117 c 0,0 -8.00987,1.96374 -16.08399,3.99024 8.4773,-17.44267 13.45357,-33.28323 14.03711,-45.97266 0.10614,-2.01588 0.15821,-3.96971 0.15821,-5.84765 0,-19.59647 -5.03887,-32.84671 -12.30664,-41.22852 -7.27839,-8.39243 -16.77508,-11.82031 -25.44336,-11.82031 z m 8.66796,116.80468 c -8.55157,15.99972 -19.40394,31.086 -30.18359,44.95313 -41.93029,52.3492 -104.7628,90.89543 -138.05664,90.81055 -8.625842,-0.0107 -15.098672,-2.51395 -18.939453,-7.86133 -1.559653,-2.18564 -2.291016,-4.51027 -2.291016,-7.05664 -0.201588,-14.98118 26.513484,-37.18722 61.664059,-58.54492 35.09752,-21.43199 78.48207,-42.34418 111.42578,-56.08399 5.82483,-2.49332 11.19262,-4.46616 16.38086,-6.2168 z"
           style="fill:#1e3f98;fill-opacity:1;fill-rule:nonzero;stroke:none;stroke-width:10.6099"
           id="path1153" /><path
           id="path1157"
           d="m 464.52746,316.05923 c -0.008,0.0637 -0.0557,0.72413 -0.58884,1.43234 -0.54111,0.70821 -1.63923,1.37663 -3.36599,1.36071 -3.02382,0 -4.41637,0.3183 -8.68155,1.40051 -2.00527,0.51723 -5.77708,0.94693 -10.64702,0.94693 -5.98398,0 -13.55945,-0.66842 -21.3418,-2.74531 -8.9521,-2.37926 -44.60134,-14.84854 -50.48187,-15.81139 -2.82488,-0.46949 -5.69751,-0.68434 -8.41099,-0.68434 -6.70811,-0.0557 -12.51702,1.44825 -13.54353,2.96812 -0.96285,1.26523 -1.36868,2.5225 -1.36868,3.81956 -0.0875,4.99726 6.66036,10.88575 14.204,15.42148 7.47201,4.5596 15.70794,7.91763 17.94398,8.40304 0.70821,0.15119 1.32093,0.2228 1.83816,0.2228 2.38723,-0.0398 3.01586,-1.24931 3.07157,-2.42701 0.0637,-1.25727 -1.89387,-8.02108 -26.49025,-16.22518 -2.64982,-0.88327 -4.31292,-1.61535 -5.3633,-2.23603 -1.01855,-0.62864 -1.59149,-1.15383 -1.63127,-1.91774 0.0318,-0.75596 0.62067,-1.09812 0.97876,-1.26523 0.38991,-0.18302 0.71617,-0.24668 0.748,-0.26259 l 0.15914,0.66842 0.17507,-0.66047 c 0.0239,0.0159 3.48535,0.81166 5.66568,1.94957 4.59939,2.4111 12.66821,3.36599 21.80333,9.76375 5.55428,3.9628 10.69477,8.76908 10.76639,13.11383 0.008,1.3448 -0.55702,2.63391 -1.74268,3.65246 -0.97876,0.84348 -2.37927,1.15382 -4.03441,1.16178 -6.41368,-0.0318 -17.66547,-4.73467 -27.51676,-10.90962 -9.79558,-6.23066 -18.21453,-13.79021 -18.31002,-20.33121 0,-0.70821 0.11141,-1.41642 0.34217,-2.10871 1.35276,-3.74795 8.10065,-8.77704 16.27292,-8.8407 0.53315,0 1.0663,0.0318 1.59945,0.0716 8.49852,0.70821 14.4825,1.11404 41.07619,11.14834 19.1933,7.26513 29.04458,8.49853 35.14792,8.49853 2.33153,0 4.1299,-0.18302 5.74526,-0.28647 5.61794,-0.35013 20.2755,-3.93097 20.29938,-3.93097 l 0.36604,-0.0875 5.33943,4.40046 z"
           style="fill:#1e3f98;fill-opacity:1;fill-rule:nonzero;stroke:none;stroke-width:7.95742" /><path
           id="path1149"
           d="m 62.757343,298.67224 0.06366,0.21485 c 0,0.0239 0.159148,0.58089 0.159148,1.19361 0,0.28647 -0.02387,0.58885 -0.167106,0.89919 -0.127319,0.31034 -0.52519,0.68434 -1.01855,0.70821 -0.02387,0 -0.03979,0.008 -0.07957,0.008 -0.525189,-0.0716 -0.421743,-0.13528 -0.684338,-0.23872 -2.617991,-1.47213 -19.813974,-13.03426 -26.243568,-15.29416 -2.299694,-0.81166 -4.647133,-1.26523 -6.700147,-1.26523 -3.97871,0.0796 -6.588743,1.47212 -6.652403,5.4747 0,0.38991 0.03183,0.81166 0.08753,1.24932 3.20684,25.3205 59.998941,76.88458 61.948508,78.301 0.77187,0.59681 1.185656,1.16178 1.201571,1.80634 -0.119362,1.25727 -1.320932,1.44825 -1.344804,1.49599 l -0.214851,-0.63659 -0.501317,0.4854 c -0.01591,-0.008 -16.973175,-15.02361 -33.962265,-33.06308 -16.973175,-18.11108 -34.01001,-39.02318 -34.097541,-51.57999 0,-2.01323 0.453573,-3.83548 1.464165,-5.37921 1.838164,-2.83285 4.861983,-4.04237 8.275716,-4.04237 h 0.07162 c 12.05549,0.0796 30.532617,13.44008 38.219484,19.51955 z"
           style="fill:#1e3f98;fill-opacity:1;fill-rule:nonzero;stroke:none;stroke-width:7.95742" /></g><g
         style="fill:#1e3f98;fill-opacity:1"
         id="g1143"><path
           d="m 119.38234,405.83872 c -0.20689,3.45352 -2.54637,34.08958 -2.54637,34.08958 -0.30239,4.36863 -0.19894,8.72929 -0.19894,8.72929 h -0.19894 c 0,0 -0.81165,-4.26517 -2.13258,-8.72929 0,0 -8.72133,-29.41857 -10.35261,-34.08958 h -9.222645 c -1.424378,3.96279 -10.352602,34.08958 -10.352602,34.08958 -1.416421,4.67101 -2.228077,8.72929 -2.228077,8.72929 h -0.103447 c 0,0 0.103447,-4.05828 -0.206893,-8.72929 0,0 -2.228077,-30.0313 -2.43497,-34.08958 H 62.964238 l 6.90704,69.80248 h 19.169423 l 9.238563,-33.27793 c 1.114039,-4.15377 1.822246,-7.80622 1.822246,-7.80622 h 0.2069 c 0,0 0.8037,3.65245 2.02914,7.71074 l 9.93881,33.37341 h 19.07394 l 7.00253,-69.80248 z"
           style="fill:#1e3f98;fill-opacity:1;fill-rule:nonzero;stroke:none;stroke-width:7.95742"
           id="path917" /><path
           d="m 175.99699,404.82972 c -16.53552,0 -25.46374,5.77709 -25.46374,17.753 0,13.9971 14.29948,17.9599 30.53262,19.47181 v 2.14054 c 0,4.35271 -3.14318,5.57815 -8.41895,5.57815 -5.27577,0 -10.95737,-1.62331 -14.80876,-3.35007 l -3.95484,10.85392 c 4.16173,1.72676 11.76903,4.26518 22.5195,4.26518 13.39233,0 22.61498,-5.58611 22.61498,-21.10308 v -31.45568 c -4.65509,-2.42701 -12.67617,-4.15377 -23.02081,-4.15377 m 5.06888,28.60692 c -7.40836,-0.61272 -12.58068,-2.42701 -12.58068,-10.04226 0,-5.57815 3.14318,-8.01312 8.4269,-8.01312 1.71881,0 3.14318,0.19893 4.15378,0.70821 z"
           style="fill:#1e3f98;fill-opacity:1;fill-rule:nonzero;stroke:none;stroke-width:7.95742"
           id="path921" /><path
           d="m 245.49312,405.83872 v 37.63859 c 0,3.35008 -1.61536,6.19087 -6.49325,6.19087 -2.13259,0 -3.65246,-0.31033 -4.86199,-0.70821 V 405.83872 H 214.8491 v 51.5402 c 5.68955,2.53842 14.20399,4.16173 24.35766,4.16173 18.46121,0 25.55923,-6.89908 25.55923,-17.85644 v -37.84549 z"
           style="fill:#1e3f98;fill-opacity:1;fill-rule:nonzero;stroke:none;stroke-width:7.95742"
           id="path925" /><path
           d="m 300.98497,404.82972 c -12.27034,0 -17.9599,7.5118 -17.9599,16.94135 v 26.17195 h -5.68159 v 12.58068 h 5.68159 v 11.16426 l 19.28083,4.86198 V 460.5237 h 7.91763 v -12.58068 h -7.91763 v -24.54864 c 0,-4.06624 1.41642,-5.57815 4.25722,-5.57815 1.42438,0 2.13259,0.20689 3.66041,0.8037 v -11.86451 c -1.43233,-0.81166 -4.77445,-1.9257 -9.23856,-1.9257"
           style="fill:#1e3f98;fill-opacity:1;fill-rule:nonzero;stroke:none;stroke-width:7.95742"
           id="path929" /><path
           d="m 371.39142,431.1083 -31.85355,-4.47207 c 1.21749,-5.88053 4.46411,-8.82478 11.45868,-8.82478 6.50122,0 11.46665,1.42438 14.51434,2.84876 l 4.25722,-11.67354 c -4.7665,-2.32356 -11.15631,-4.15377 -21.30201,-4.15377 -17.85645,0 -27.29395,12.06345 -27.29395,28.50348 0,16.44003 8.82478,28.20905 25.96506,28.20905 16.9493,0 24.35766,-11.4746 24.35766,-27.49288 0,-1.02651 0,-1.93366 -0.10345,-2.94425 m -25.05791,19.27287 c -5.6816,0 -8.72929,-5.18028 -8.11657,-14.71327 l 15.42148,2.42701 c 0,8.22798 -2.33153,12.28626 -7.30491,12.28626"
           style="fill:#1e3f98;fill-opacity:1;fill-rule:nonzero;stroke:none;stroke-width:7.95742"
           id="path933" /><path
           d="m 399.29889,404.92521 c -7.09802,0 -13.50374,1.73472 -17.14824,4.05828 l 4.86994,12.17486 c 2.13259,-1.71881 5.78505,-3.13523 9.33405,-3.13523 2.94425,0 5.06888,1.7188 5.06888,4.24926 0,2.64187 -1.41642,4.36863 -5.98398,6.29432 -9.73988,3.95484 -11.96796,9.53299 -11.96796,15.22255 0,9.93881 7.80623,17.753 19.27287,17.753 7.40836,0 12.07936,-1.21749 17.14824,-4.16173 l -4.56756,-10.75048 c -1.61535,1.21749 -4.77445,2.7294 -8.02108,2.7294 -3.23867,0 -4.86198,-1.9257 -4.86198,-4.25722 0,-2.8408 2.12463,-4.66305 5.98398,-6.38981 10.45605,-4.5596 12.78757,-9.64439 12.78757,-15.93075 0,-10.2412 -8.12452,-17.85645 -21.91473,-17.85645"
           style="fill:#1e3f98;fill-opacity:1;fill-rule:nonzero;stroke:none;stroke-width:7.95742"
           id="path937" /></g></g><g
       id="g1302"><g
         id="g1254"><path
           id="path1221"
           d="m 273.18016,591.73597 c 1.31298,1.52782 6.28637,7.1935 12.66026,13.20136 0.34217,0.33421 0.70025,0.6525 1.05038,0.99467 0.9708,-0.0875 3.07952,-0.50131 5.69751,-2.39518 -0.23872,-0.47745 -0.53315,-1.10608 -0.82757,-1.83021 -0.32626,-0.77187 -0.6366,-1.63922 -0.88328,-2.53841 -0.24668,-0.89123 -0.4297,-1.80634 -0.43765,-2.7294 0,-0.35808 0.0239,-0.71617 0.10344,-1.06629 0.18302,-0.90715 0.6366,-1.62332 1.15383,-2.21216 0.748,-0.83553 1.63127,-1.41643 2.34744,-1.83021 -0.0398,-0.1114 -0.0796,-0.22281 -0.11936,-0.35013 -0.3183,-1.03446 -0.65251,-2.39518 -0.65251,-3.85935 0,-0.82757 0.10344,-1.68697 0.4297,-2.53841 0.3183,-0.84349 0.87531,-1.6631 1.69493,-2.28378 0.66842,-0.4854 1.31297,-0.62864 1.9814,-0.748 0.66046,-0.10345 1.33684,-0.13528 1.98139,-0.13528 0.76392,0 1.47213,0.0477 2.02119,0.0875 0.35808,-0.52519 0.86736,-1.2334 1.53578,-1.95753 0.62864,-0.71617 1.39255,-1.44825 2.29969,-2.02914 0.90715,-0.58089 1.9814,-1.03447 3.22276,-1.04242 0.99468,-0.008 2.04506,0.33421 2.96016,1.00263 0.93102,0.67638 1.73472,1.6631 2.47476,2.97608 0.66046,1.18565 0.9708,2.37927 0.9708,3.50922 0,1.33685 -0.41378,2.55433 -0.98672,3.54901 -0.8594,1.51191 -2.06097,2.62595 -3.05565,3.38986 -0.33421,0.27055 -0.63659,0.49336 -0.9151,0.66842 0.0716,0.76391 0.15119,1.88591 0.15119,3.17501 0,1.32093 -0.0796,2.80897 -0.35808,4.21743 -0.11936,0.55702 -0.27851,1.09813 -0.46949,1.63127 0.38195,-0.5411 0.81166,-1.05833 1.33685,-1.53578 0.58884,-0.4854 1.16178,-0.66842 1.76654,-0.85144 0.91511,-0.23077 1.9257,-0.34217 2.88059,-0.41379 0.66046,-0.0398 1.28114,-0.0716 1.81429,-0.0716 0.15915,-1.12996 0.58885,-2.69757 1.72676,-4.19356 0.40583,-0.53315 0.96285,-0.92306 1.52782,-1.12996 0.56498,-0.23076 1.122,-0.30238 1.6631,-0.30238 1.36072,0.008 2.59412,0.44562 3.54901,0.83553 0.23873,0.10345 0.46153,0.20689 0.66047,0.29442 0.40583,-0.32625 0.93897,-0.72412 1.57557,-1.12995 1.43233,-0.92306 3.34211,-1.90978 5.5304,-1.93365 0.91511,0 1.87796,0.19893 2.76919,0.69229 0.89918,0.49336 1.69493,1.25728 2.33152,2.27583 0.81961,1.2891 1.20157,2.5782 1.20157,3.76385 0,1.05038 -0.29442,1.98936 -0.70025,2.73736 -0.62864,1.14587 -1.48804,1.92569 -2.18034,2.45884 -0.0955,0.0637 -0.18302,0.12732 -0.2785,0.17506 0.0955,0.58885 0.17506,1.35276 0.18302,2.22808 -0.008,1.16974 -0.14324,2.5225 -0.68434,3.85935 -0.51723,1.32093 -1.50395,2.62595 -3.07157,3.41373 -1.17769,0.58885 -2.41109,0.77983 -3.549,0.77983 -1.32094,0 -2.54638,-0.25464 -3.49331,-0.47745 -0.19098,-0.0477 -0.36604,-0.0955 -0.53315,-0.13527 -0.81166,1.55169 -2.86467,3.84343 -6.915,4.86994 -0.78778,0.19098 -1.55169,0.28646 -2.27582,0.28646 -1.46416,0 -2.76918,-0.38195 -3.85139,-0.93101 -1.63127,-0.83553 -2.80101,-2.02119 -3.58084,-3.00791 -0.1671,-0.19098 -0.29442,-0.374 -0.42174,-0.55702 -1.93365,0.68434 -4.0742,0.93102 -6.23066,0.93898 -2.40314,-0.008 -4.83015,-0.29443 -6.96274,-0.66842 3.70816,2.88854 7.50384,5.41104 11.03694,7.04231 0.52519,-0.70025 1.12199,-1.25727 1.7745,-1.68697 1.30502,-0.87532 2.75327,-1.18566 4.05829,-1.18566 1.74267,0.008 3.29437,0.50132 4.44819,0.96285 1.13791,0.47745 1.88591,0.93898 1.93366,0.97081 l 1.06629,0.66842 -0.28647,0.748 c 0.62068,0.27055 1.35277,0.63659 2.10872,1.11404 0.94693,0.58089 1.93365,1.32888 2.72144,2.32356 0.79574,0.97876 1.4005,2.25991 1.4005,3.74795 0,0.8037 -0.17506,1.64718 -0.5411,2.4668 -0.56498,1.3448 -1.48008,2.35539 -2.53842,2.96016 -1.05833,0.58884 -2.2042,0.78778 -3.2705,0.78778 -1.65514,-0.008 -3.19092,-0.46949 -4.33679,-0.90715 -0.0955,-0.0398 -0.17506,-0.0716 -0.2626,-0.1114 l -0.38195,0.99468 -1.36868,-0.4297 c -0.0716,-0.0318 -1.98935,-0.62068 -4.00258,-1.90183 -1.01059,-0.6525 -2.04506,-1.46416 -2.88854,-2.54637 -0.82757,-1.06629 -1.45621,-2.44293 -1.44825,-4.03441 0,-0.71617 0.14323,-1.47212 0.39787,-2.22808 -4.80628,-2.25195 -9.80354,-5.83279 -14.45863,-9.73192 l 0.13527,1.51986 0.15119,0.19894 0.0159,0.0239 c 0.11936,0.15915 0.75595,0.97876 1.6631,1.9257 0.90715,0.95489 2.10872,2.02118 3.23867,2.66573 0.46949,0.28647 1.51987,0.51724 2.72144,0.90715 0.5968,0.20689 1.24931,0.47744 1.87795,0.89919 0.62068,0.42174 1.2334,1.00263 1.68697,1.75859 0.45357,0.74004 0.62068,1.58352 0.57293,2.32356 -0.11936,1.51987 -0.87531,2.66574 -1.50395,3.51718 -0.0796,0.0875 -0.14323,0.16711 -0.21485,0.24668 0.13528,0.17507 0.27055,0.35013 0.41379,0.56498 0.72412,1.07425 1.48008,2.71348 1.36072,4.74262 -0.0796,1.2334 -0.48541,2.56229 -1.30502,3.89914 -0.30238,0.50131 -0.72413,0.87531 -1.15383,1.12199 -0.64455,0.38196 -1.31297,0.54111 -1.93365,0.62068 -0.61272,0.0796 -1.20157,0.0716 -1.71084,0.0398 -0.0796,0 -0.15119,-0.008 -0.23077,-0.0159 -0.11936,0.27851 -0.28647,0.58885 -0.49336,0.90715 -0.35808,0.55702 -0.8594,1.15383 -1.57557,1.62331 -0.70025,0.46949 -1.65514,0.76392 -2.69756,0.6923 -0.13528,0 -0.2626,-0.0159 -0.40583,-0.0398 -1.45621,-0.19893 -2.66574,-0.90714 -3.47739,-1.81429 -1.24932,-1.36868 -1.73472,-3.05565 -1.96549,-4.5039 -0.13527,-0.84349 -0.1671,-1.59944 -0.17506,-2.19625 -0.42174,-0.11936 -0.9151,-0.27851 -1.41642,-0.49336 -0.71617,-0.31034 -1.46417,-0.72412 -2.11667,-1.38459 -0.32626,-0.32625 -0.62068,-0.73208 -0.81962,-1.20953 -0.21485,-0.47744 -0.32625,-1.03446 -0.29442,-1.59148 l 0.008,-0.13528 c 0.0557,-1.07425 0.40582,-2.02118 0.83552,-2.80101 0.46949,-0.82757 1.04243,-1.48008 1.58353,-1.99731 -0.4854,-0.374 -0.98672,-0.84349 -1.39255,-1.47212 -0.44561,-0.68434 -0.75595,-1.59149 -0.69229,-2.57821 l 0.0159,-0.23076 v 0.008 c 0.0875,-0.64455 0.35809,-1.10608 0.64455,-1.50396 0.51723,-0.69229 1.1777,-1.25727 1.90978,-1.82224 1.28115,-0.97877 2.80101,-1.88591 3.84344,-2.4668 l -0.4297,-4.83016 c -1.53579,-1.37663 -3.01587,-2.75327 -4.41637,-4.10603 -4.67896,-4.51185 -8.45874,-8.64971 -10.43218,-10.87779 z"
           style="fill:#1e3f98;fill-opacity:1;fill-rule:nonzero;stroke:none;stroke-width:7.95742" /><path
           id="path1219"
           d="m 273.44276,630.52043 c 0.0557,0.0637 0.61272,0.57293 1.56761,1.48008 2.4668,2.30765 7.49589,7.03436 13.05813,12.25442 0.9708,0.40583 3.19092,1.29706 6.0158,2.14055 3.37395,1.02651 7.59138,1.96548 11.35524,1.96548 h 0.0557 c 0.16711,-0.65251 0.52519,-1.75859 1.18566,-2.96812 0.51723,-0.89918 1.20157,-1.87795 2.1485,-2.6896 0.95489,-0.82757 2.19625,-1.496 3.68429,-1.74268 0.32625,-0.0637 0.63659,-0.0796 0.95489,-0.0796 1.61535,0.008 3.22275,0.52519 4.51185,1.01059 0.374,0.12732 0.6923,0.27055 0.99468,0.39787 0.19098,-0.27055 0.41379,-0.54906 0.68434,-0.84348 0.46949,-0.51724 1.06629,-1.05834 1.79838,-1.48804 0.74004,-0.4297 1.64718,-0.75596 2.66573,-0.75596 h 0.0398 c 1.76655,0.0239 3.25458,0.79574 4.35271,1.48804 0.46153,0.28647 0.84348,0.57293 1.13791,0.81166 0.21485,-0.0716 0.44561,-0.14324 0.71617,-0.21485 0.89123,-0.23873 1.98935,-0.50132 3.09543,-0.51724 l 0.25464,0.0159 c 1.01855,0.0477 2.47476,0.17506 3.88322,0.99468 0.70821,0.40583 1.38459,1.00263 1.88591,1.81429 0.50927,0.81166 0.81961,1.79837 0.90714,2.96016 0.008,0.1671 0.0159,0.34217 0.0159,0.50927 0.008,1.54374 -0.60476,2.88855 -1.48008,3.77978 -1.31297,1.36867 -3.01586,1.93365 -4.35271,2.25195 -0.42174,0.0955 -0.81166,0.15915 -1.15382,0.20689 -0.0398,0.22281 -0.0875,0.45357 -0.15915,0.70025 -0.14324,0.54111 -0.32626,1.13791 -0.62068,1.74268 -0.28647,0.5968 -0.67638,1.20157 -1.24932,1.72676 -0.73208,0.66046 -1.59944,1.04242 -2.47475,1.29706 -0.88328,0.24668 -1.79042,0.35012 -2.65778,0.35012 -0.98672,-0.008 -1.91774,-0.12732 -2.74531,-0.38991 -0.54111,-0.18302 -0.89123,-0.43766 -1.26523,-0.70821 -0.14323,-0.1114 -0.27851,-0.22281 -0.41379,-0.34217 -0.13527,0.18302 -0.27055,0.36604 -0.4297,0.56498 -0.58089,0.67638 -1.37663,1.36072 -2.43497,1.86203 -1.05833,0.51724 -2.36335,0.82757 -3.90709,0.82757 h -0.0318 c -2.0371,0 -3.77182,-0.83552 -5.045,-1.97344 -1.9257,-1.74267 -3.02382,-4.09011 -3.70816,-6.00785 -0.19894,-0.56497 -0.35809,-1.07425 -0.4854,-1.54374 -0.11937,0 -0.23077,0.008 -0.35809,0.008 -4.09807,0 -8.35529,-0.93897 -11.81677,-1.95752 0.67639,0.63659 1.35277,1.25727 2.02119,1.87795 1.55965,1.47212 3.09543,2.8965 4.5596,4.25722 1.19361,0.70025 9.63643,5.3633 23.73698,8.3155 0.65251,-1.32093 1.51191,-2.33948 2.5225,-3.02382 1.35276,-0.93102 2.88059,-1.2334 4.24927,-1.2334 1.62331,0.008 3.08747,0.40583 4.16173,0.8037 1.0822,0.38196 1.78246,0.77983 1.8302,0.8037 l 1.09813,0.61272 -0.24668,0.76391 c 0.66046,0.24668 1.4562,0.59681 2.26786,1.05038 0.99468,0.54906 2.02118,1.28115 2.87263,2.26787 0.82757,0.97876 1.47212,2.29173 1.47212,3.81956 0,0.70821 -0.14323,1.45621 -0.41378,2.2042 -0.54111,1.47213 -1.496,2.57025 -2.618,3.20684 -1.12199,0.64455 -2.32356,0.85145 -3.45352,0.85145 -1.56761,-0.008 -3.0079,-0.38196 -4.09011,-0.748 -0.0398,-0.008 -0.0637,-0.0239 -0.10345,-0.0398 l -0.32625,1.00264 -1.38459,-0.35013 c -0.0875,-0.0318 -2.08484,-0.53315 -4.20948,-1.75063 -1.05833,-0.62068 -2.15646,-1.40847 -3.04769,-2.49067 -0.87531,-1.0663 -1.53578,-2.48272 -1.53578,-4.11399 0,-0.22281 0.0398,-0.46153 0.0557,-0.70025 -6.38185,-1.35276 -11.65762,-3.03974 -15.63633,-4.58348 1.12996,1.05038 2.09281,1.93366 2.8408,2.59412 0.46153,0.41379 0.82757,0.748 1.09813,0.98672 l 0.17506,0.14324 c 1.05834,0.0955 2.66574,0.28646 4.36067,0.71616 1.46416,0.374 2.97607,0.89919 4.30496,1.75859 0.65251,0.4297 1.27319,0.94694 1.7745,1.59149 0.50132,0.64455 0.87532,1.43233 1.04243,2.29969 0.13527,0.76391 0.19893,1.46417 0.19893,2.10076 0.008,1.44029 -0.32625,2.56229 -0.748,3.38986 0.36605,0.21485 0.748,0.46949 1.14587,0.77187 0.73209,0.56498 1.496,1.2891 2.0928,2.22808 0.61273,0.92306 1.05038,2.10076 1.05038,3.42965 0,0.19893 -0.0159,0.38991 -0.0398,0.58884 -0.21485,2.53842 -1.43234,4.25722 -2.60208,5.18824 -0.27851,0.22281 -0.55702,0.40583 -0.81961,0.55702 0.21485,0.77983 0.42174,1.78246 0.4297,2.88854 -0.008,1.05834 -0.19098,2.23604 -0.87532,3.30233 -0.66842,1.08221 -1.86204,1.93366 -3.40578,2.2997 -0.51723,0.1114 -1.01059,0.17506 -1.50395,0.17506 -1.47212,0.008 -2.75326,-0.58089 -3.67632,-1.37663 -1.3846,-1.20953 -2.12464,-2.7851 -2.61004,-4.05829 -0.0796,-0.2228 -0.15119,-0.44561 -0.21485,-0.65251 -0.31034,0.0557 -0.64455,0.0875 -1.01059,0.0875 -0.86736,0.008 -1.91774,-0.2069 -2.8965,-0.84349 -0.99468,-0.62068 -1.86204,-1.63923 -2.50659,-3.07156 -0.50132,-1.10609 -0.70025,-2.20421 -0.69229,-3.25459 0,-2.0371 0.73208,-3.78773 1.42437,-5.02909 0.16711,-0.31034 0.34217,-0.58885 0.50132,-0.83553 -0.19893,-0.19893 -0.40583,-0.41378 -0.62863,-0.66842 -0.43766,-0.53315 -0.89919,-1.1777 -1.24932,-1.94957 -0.36604,-0.76391 -0.62068,-1.67106 -0.62068,-2.67369 0,-0.23077 0.0159,-0.46949 0.0398,-0.70821 0.14323,-1.11404 0.59681,-2.11667 1.13791,-3.03973 1.01059,-1.67106 2.39518,-3.13523 3.31029,-4.02646 -0.374,-0.34217 -0.78779,-0.70821 -1.27319,-1.15382 -4.37658,-4.00259 -12.85919,-11.92022 -20.45057,-19.03415 l 2.57821,6.21474 c 0.37399,0.34217 0.78778,0.74004 1.29705,1.18566 0.60477,0.5411 1.31298,1.08221 1.97344,1.44029 1.15383,0.6366 2.69757,1.14587 4.10603,1.99731 0.70026,0.42175 1.39255,0.96285 1.91774,1.73472 0.53315,0.77187 0.82757,1.77451 0.79574,2.83284 l -0.008,0.14324 c -0.10345,1.27318 -0.67638,2.27582 -1.2334,3.0636 0.24668,0.15915 0.50927,0.32626 0.75595,0.54906 0.77187,0.6366 1.496,1.58353 1.97344,2.8408 0.4854,1.26523 0.71617,2.8408 0.58885,4.7665 -0.0796,1.32093 -0.50928,2.43497 -1.12995,3.26254 -0.88328,1.18565 -2.02915,1.75859 -2.96812,2.06097 0.19098,0.71617 0.33421,1.59148 0.27851,2.54637 -0.0716,1.00264 -0.38992,2.15647 -1.26523,3.08748 -0.87532,0.92306 -2.19625,1.48804 -3.81956,1.63127 -0.43766,0.0477 -0.8594,0.0557 -1.26523,0.0318 -1.31298,-0.0875 -2.45884,-0.57293 -3.27846,-1.29706 -1.24136,-1.09812 -1.75063,-2.54637 -1.99731,-3.77181 -0.12732,-0.68434 -0.16711,-1.32093 -0.18302,-1.84612 -0.50928,-0.11141 -1.10608,-0.28647 -1.72676,-0.57294 -0.70025,-0.31034 -1.43234,-0.77187 -2.05302,-1.44825 -0.62863,-0.68434 -1.12995,-1.59944 -1.32888,-2.68165 -0.22281,-1.27319 -0.28647,-2.37927 -0.23077,-3.33416 0.0796,-1.12199 0.33421,-2.05301 0.71617,-2.81692 0.15119,-0.27851 0.31034,-0.52519 0.4854,-0.75596 -0.63659,-0.41378 -1.30502,-0.99468 -1.81429,-1.79042 -0.55702,-0.86736 -0.9151,-1.99731 -0.85145,-3.2705 l 0.008,-0.24668 c 0.0955,-1.64718 0.72413,-2.99199 1.6074,-3.90709 0.87532,-0.93102 1.84612,-1.50395 2.76918,-2.1485 1.38459,-0.97081 2.11668,-1.68698 2.4668,-2.13259 0.17507,-0.21485 0.25464,-0.36604 0.27851,-0.4297 l 0.0239,-0.0477 c 0.008,-0.0477 0.008,-0.0875 0.0159,-0.14323 l -4.89381,-11.81677 c -2.64982,-2.48271 -4.97339,-4.66304 -6.68424,-6.2784 z"
           style="fill:#1e3f98;fill-opacity:1;fill-rule:nonzero;stroke:none;stroke-width:7.95742" /><path
           id="path953"
           d="m 273.62578,670.0131 c 0.11936,0.16711 0.29442,0.42174 0.54906,0.78778 1.58353,2.244 5.64181,7.91764 10.11388,13.39234 2.22808,2.73735 4.5596,5.43492 6.70015,7.59138 1.78246,1.81429 3.46943,3.24663 4.74262,4.02645 1.31297,-0.81165 2.65778,-1.19361 3.93097,-1.19361 1.30501,0 2.48271,0.38196 3.48535,0.92306 1.50395,0.8037 2.6339,1.91774 3.42169,2.83284 0.78778,0.93102 1.22544,1.6631 1.24931,1.71085 l 0.65251,1.07425 -0.59681,0.53315 c 0.25464,0.31829 0.53315,0.68433 0.81962,1.09016 0.97876,1.42438 2.06097,3.33416 2.07688,5.5702 0,0.78778 -0.15915,1.60739 -0.50927,2.39518 -0.374,0.77983 -0.93898,1.51191 -1.69493,2.13259 -1.20157,1.00263 -2.57821,1.48008 -3.86731,1.48008 -1.21748,0 -2.31561,-0.38196 -3.25458,-0.90715 -1.40051,-0.76391 -2.50659,-1.84612 -3.27846,-2.72144 -0.0477,-0.0477 -0.0796,-0.0875 -0.11936,-0.13527 l -0.77983,0.70025 -1.03446,-1.00263 c -0.0477,-0.0477 -1.05038,-1.03447 -2.0928,-2.54638 -1.01855,-1.51987 -2.14055,-3.57288 -2.16442,-5.94419 -0.008,-1.30502 0.42174,-2.69757 1.36072,-3.90709 -1.72676,-1.19362 -3.55697,-2.92833 -5.49062,-4.95748 -1.72676,-1.80633 -3.49331,-3.85139 -5.22007,-5.94419 v 2.07689 h -0.0159 c 0.0477,0.0875 0.0955,0.17506 0.15914,0.27055 0.45358,0.70025 1.07426,1.48008 1.56762,1.86999 l 0.0637,0.0477 0.0477,0.0557 c 0.4854,0.49336 1.05834,0.89123 1.71085,1.31298 0.96284,0.63659 2.10871,1.27318 3.08747,2.41905 0.48541,0.56498 0.89919,1.26523 1.16974,2.08484 0.27851,0.82758 0.42175,1.75859 0.42175,2.82489 v 0.3183 0.0159 c -0.0716,2.17238 -1.122,3.90709 -2.07689,5.09275 -0.21485,0.27851 -0.4297,0.51723 -0.62863,0.73208 0.008,0.0159 0.0239,0.0239 0.0477,0.0478 0.65251,0.80369 1.42438,1.96548 1.49599,3.51717 v 0.38196 c 0,1.2334 -0.23872,2.27582 -0.66046,3.10339 -0.62068,1.21749 -1.59149,1.90183 -2.39518,2.22808 0.0398,0.46949 0.0636,1.02651 0.0636,1.64719 0,1.51986 -0.15119,3.36599 -0.89123,5.05296 -0.38195,0.84349 -0.93101,1.6631 -1.73471,2.29174 -0.79575,0.62067 -1.85408,1.01855 -3.01587,1.06629 -0.17506,0.0159 -0.34216,0.0159 -0.50131,0.0159 -1.08221,0 -2.02914,-0.17506 -2.84876,-0.51723 -1.2334,-0.51723 -2.10076,-1.46416 -2.56229,-2.45088 -0.46949,-0.99468 -0.5968,-2.02119 -0.5968,-2.93629 0,-0.65251 0.0716,-1.24932 0.15914,-1.77451 -0.58884,-0.15914 -1.27318,-0.41378 -1.96548,-0.80369 -0.93897,-0.53315 -1.90978,-1.3846 -2.61799,-2.60208 -0.71617,-1.21749 -1.15383,-2.79305 -1.16178,-4.72671 v -0.0716 c 0,-2.19625 1.04242,-3.84344 2.02118,-4.85403 0.11141,-0.11936 0.22281,-0.23077 0.34217,-0.32625 -0.46153,-0.77983 -0.77187,-1.82225 -0.75595,-3.16706 0,-0.54906 0.0398,-1.13791 0.14323,-1.80633 0.35013,-2.37131 1.41642,-4.12194 2.61799,-5.38717 1.19361,-1.28115 2.48272,-2.15646 3.42169,-3.01587 0.93898,-0.85144 1.5517,-1.65514 1.9257,-2.21216 0.19097,-0.28647 0.31034,-0.51723 0.39787,-0.65251 l 0.0716,-0.1671 0.008,-0.0239 0.4297,-1.02651 -0.0159,-3.77182 c -1.07425,-1.38459 -2.11668,-2.73735 -3.07157,-4.00258 -1.51191,-2.01323 -2.80101,-3.79569 -3.76386,-5.14049 z"
           style="fill:#1e3f98;fill-opacity:1;fill-rule:nonzero;stroke:none;stroke-width:7.95742" /></g><path
         style="fill:#1e3f98;fill-opacity:1;fill-rule:nonzero;stroke:none;stroke-width:7.95742"
         d="m 250.09967,732.84489 -90.82598,0.0159 h -0.77187 V 572.47106 c 0,-0.58885 0.0716,-8.10065 3.54105,-17.85645 3.47739,-9.76375 10.36852,-21.78741 24.00753,-31.29652 25.9571,-18.09518 63.77872,-22.17733 63.83442,-22.2012 l 0.9151,-0.0875 v 0.84349 230.20814 0.76391 z"
         id="path945" /><g
         id="g1215"><path
           id="path1206"
           d="m 248.96977,611.12021 c 0,0 -0.67638,-0.25464 -1.6074,-0.87532 -1.40847,-0.93102 -3.62063,-2.35539 -5.85666,-3.69224 -0.14324,-0.0875 -0.28647,-0.16711 -0.4297,-0.25464 -0.0637,0.86736 -0.74004,3.04769 -1.99732,6.23066 -0.9151,2.76918 -2.35539,6.24658 -4.59143,9.95473 -1.17769,2.34744 -2.59412,5.03705 -4.28109,8.13249 -7.23329,13.28093 -8.97597,22.51949 -8.97597,28.66262 0,3.81956 0.66843,6.43755 1.16179,8.15635 0.21485,0.76392 0.83553,2.26787 1.72676,4.19356 3.15909,6.77973 9.75579,19.20921 15.56471,29.9199 2.90446,5.34739 5.60998,10.28099 7.58342,13.86978 0.70025,1.27319 1.20953,2.3554 1.70289,3.25459 z"
           style="fill:#fad90e;fill-opacity:1;fill-rule:nonzero;stroke:none;stroke-width:7.95742" /><path
           id="path1204"
           d="m 248.96977,601.1416 c -0.17507,-0.14323 -0.48541,-0.35808 -0.89919,-0.66046 -2.02119,-1.45621 -6.52509,-4.54369 -9.46137,-5.57019 -2.02119,-0.71617 -4.26518,-1.22545 -5.98398,-1.5517 -0.12732,-0.0159 -0.25464,-0.0477 -0.374,-0.0557 v 0 l -0.85145,-0.13528 c 0,0 -0.10344,-0.008 -0.32625,-0.0398 -0.64455,-0.0796 -2.25195,-0.24668 -4.5039,-0.24668 -2.21216,0 -5.03704,0.15915 -8.18023,0.70821 -4.19356,0.748 -6.58078,2.05302 -7.92559,3.32621 -1.32888,1.28114 -1.65514,2.54637 -1.69493,3.3819 v 0.008 l -0.008,0.11936 c 0.0159,0.78778 0.27851,1.2334 0.72412,1.59148 0.46153,0.34217 1.1777,0.54906 2.02914,0.54906 0.52519,0 1.08221,-0.0716 1.65515,-0.23076 2.59412,-0.70026 5.38717,-2.26787 10.64702,-2.49863 0.53315,-0.0239 1.01855,-0.0398 1.47213,-0.0398 1.48008,0.008 2.53046,0.11936 3.30233,0.32626 1.03446,0.1671 4.04236,0.70821 7.46406,1.91773 2.21216,0.79575 5.57815,2.76123 8.45873,4.55165 1.88591,1.1777 3.5331,2.26786 4.45616,2.88058 z"
           style="fill:#fad90e;fill-opacity:1;fill-rule:nonzero;stroke:none;stroke-width:7.95742" /><path
           id="path1202"
           d="m 248.96977,523.78753 c -0.19894,0.2626 -0.49336,0.54906 -0.72413,0.85145 -2.68961,3.57288 -7.09006,9.96269 -9.9229,19.94129 -0.81166,2.85671 -0.97081,6.94683 -0.96285,9.29426 0,0.56498 0.008,1.04243 0.0159,1.36072 0.008,0.32626 0.0159,0.49336 0.0159,0.49336 l 0.0478,1.20157 -1.09813,-0.44561 c 0,0 -0.14323,-0.0637 -0.4297,-0.16711 -2.01323,-0.75595 -10.68681,-3.81956 -19.40019,-4.09011 l -0.35012,-0.0159 c -2.85672,0 -5.38718,1.11404 -7.20147,2.244 -0.46948,0.29442 -0.89123,0.58885 -1.26523,0.86736 2.68165,0.11936 7.01845,0.97876 11.81677,3.80364 2.61799,1.55966 4.8779,4.28905 6.75585,7.36857 1.88591,3.07157 3.3819,6.51713 4.38454,9.50912 1.48008,4.40045 1.65514,10.85392 1.6631,14.23582 0,0.62068 -0.008,1.12995 -0.0159,1.50395 1.83817,0.32626 4.43229,0.87532 6.82747,1.72676 2.19625,0.77983 4.89381,2.41906 7.09006,3.86731 1.09812,0.72412 2.06893,1.4005 2.75327,1.90182 z"
           style="fill:#fad90e;fill-opacity:1;fill-rule:nonzero;stroke:none;stroke-width:7.95742" /><path
           id="path1200"
           d="m 201.94137,620.35881 c -4.67896,-0.13527 -7.61525,-1.47212 -9.33405,-3.35803 -1.72676,-1.87795 -2.15646,-4.16969 -2.15646,-6.02377 0,-1.01854 0.13527,-1.90182 0.26259,-2.54637 -4.01054,0.36604 -7.1378,2.39518 -9.35792,5.37126 -2.40315,3.23071 -3.68429,7.58342 -3.68429,11.96796 0,4.58347 1.40051,9.18286 4.30496,12.60455 2.90446,3.41373 7.289,5.72138 13.48783,5.72934 2.04506,0 4.28109,-0.25464 6.73198,-0.81166 16.49573,-3.76385 25.66267,-12.96263 30.77134,-21.23039 0.0557,-0.1114 0.1114,-0.20689 0.17506,-0.31034 2.0928,-4.1299 3.46943,-7.16963 4.36067,-9.3818 0.0557,-0.13527 0.0955,-0.25463 0.14323,-0.374 0.0955,-0.30238 0.19098,-0.57293 0.27851,-0.84348 0.4297,-1.43234 0.71617,-2.60208 0.89123,-3.42169 0.0796,-0.39787 0.14323,-0.71617 0.17506,-0.93102 0.0398,-0.20689 0.0478,-0.30238 0.0478,-0.30238 l 0.1671,-1.25727 c -1.40846,-0.77983 -2.71348,-1.41642 -3.66041,-1.75064 -1.90978,-0.68433 -3.68428,-1.12995 -5.03705,-1.43233 -0.0159,0.27851 -0.10344,0.49336 -0.1671,0.62863 -0.25464,1.6631 -1.20953,3.48535 -2.68165,5.37922 -4.56756,5.83279 -14.24378,12.2783 -24.97834,12.30217 -0.24668,0 -0.49336,0 -0.74004,-0.008"
           style="fill:#fad90e;fill-opacity:1;fill-rule:nonzero;stroke:none;stroke-width:7.95742" /><path
           id="path1196"
           d="m 251.98553,723.55146 v 0 c 0.008,0 0.008,-0.008 0.008,-0.008 z"
           style="fill:#fad90e;fill-opacity:1;fill-rule:nonzero;stroke:none;stroke-width:7.95742" /><path
           id="path1194"
           d="M 251.99353,723.54346 Z"
           style="fill:#fad90e;fill-opacity:1;fill-rule:nonzero;stroke:none;stroke-width:7.95742" /><path
           id="path1192"
           d="m 251.99353,723.54346 c 0,0 0.008,-0.0159 0.0159,-0.0239 -0.008,0.008 -0.008,0.008 -0.0159,0.0239"
           style="fill:#fad90e;fill-opacity:1;fill-rule:nonzero;stroke:none;stroke-width:7.95742" /></g><path
         style="fill:#1e3f98;fill-opacity:1;fill-rule:nonzero;stroke:none;stroke-width:7.95742"
         d="m 248.73895,728.19059 3.23867,-4.63122 v -0.008 h 0.008 -0.008 l 0.0318,-0.0398 v 0.008 c 0,0 0,-0.008 0,-0.0159 0.0318,-0.0398 0.0796,-0.10345 0.14323,-0.19098 0.11141,-0.1671 0.27056,-0.42174 0.50132,-0.75595 0.42174,-0.64455 1.05038,-1.59944 1.80633,-2.8408 1.51987,-2.4668 3.62859,-6.04764 5.93624,-10.47197 4.62326,-8.86456 10.09001,-21.14286 13.47987,-34.94102 l 0.9151,-4.04237 c 1.36072,-6.46143 2.22808,-13.18545 2.29969,-20.02087 v -0.4297 c 0,-4.51186 -0.64455,-9.46933 -1.50395,-14.39497 l -0.9708,-5.12458 c -0.23873,-1.16974 -0.47745,-2.33152 -0.71617,-3.47739 -1.57557,-7.36061 -3.11135,-14.02893 -3.12727,-17.40288 v -0.0239 -0.10345 c 0,-0.15119 0.008,-0.2785 0.0239,-0.42174 0.20689,-5.03704 1.05833,-9.50116 2.33152,-13.46395 l 1.16178,-3.20684 c 2.6737,-6.60466 6.56487,-11.65762 10.62316,-15.47718 6.92295,-6.52509 14.45863,-9.41363 16.5196,-9.91495 0.14323,-0.0318 0.28647,-0.0557 0.33421,-0.0637 h 4.0742 l -2.9522,-3.07952 -0.0637,-0.0477 0.008,-0.0159 c -0.0875,-0.0796 -0.2069,-0.19097 -0.35809,-0.33421 -0.31829,-0.30238 -0.75595,-0.71617 -1.3448,-1.20953 -1.16974,-0.98672 -2.87263,-2.29173 -5.02909,-3.59675 -4.31292,-2.62595 -10.47992,-5.24394 -17.88032,-5.25985 -3.14318,0 -6.50121,0.4854 -9.98656,1.63923 -0.27056,-2.33153 -0.89919,-6.20679 -2.25991,-10.69478 -2.20421,-7.28899 -6.36594,-16.24905 -14.35518,-22.7423 l -2.88059,-2.33948 z"
         id="path949" /><g
         id="g1270"><path
           id="path1249"
           d="m 340.35669,667.93602 c -0.74004,-0.89123 -2.06893,-1.67901 -3.19889,-2.15646 -0.19893,-0.0955 -0.36604,-0.15119 -0.54906,-0.2228 l -2.18033,6.77176 c 0.10345,0.0318 0.20689,0.0796 0.3183,0.11936 0.8594,0.27851 1.95752,0.52519 2.93628,0.52519 0.75596,0 1.42438,-0.14323 1.9257,-0.43766 0.50927,-0.29442 0.92306,-0.73208 1.27319,-1.62331 0.15915,-0.43766 0.2228,-0.81166 0.2228,-1.13791 -0.008,-0.67638 -0.25463,-1.24136 -0.74799,-1.83817"
           style="fill:#228748;fill-opacity:1;fill-rule:nonzero;stroke:none;stroke-width:7.95742" /><path
           id="path1247"
           d="m 333.74407,663.30484 c -0.84348,-0.31034 -1.96548,-0.59681 -3.03177,-0.58885 -0.93898,0 -1.79042,0.19893 -2.51455,0.69229 -0.73208,0.50928 -1.43233,1.35276 -1.94957,2.96016 -0.14323,0.43766 -0.19097,0.82757 -0.19097,1.1777 0,0.81961 0.29442,1.49599 0.83552,2.18033 0.81962,1.0106 2.23604,1.87 3.46944,2.4111 0.25464,0.11936 0.4854,0.20689 0.71617,0.29443 l 2.88854,-9.04759 c -0.0796,-0.0239 -0.13528,-0.0557 -0.22281,-0.0796"
           style="fill:#228748;fill-opacity:1;fill-rule:nonzero;stroke:none;stroke-width:7.95742" /><path
           id="path1245"
           d="m 309.98311,653.85941 c 0.55702,1.11404 1.28114,2.15646 2.12463,2.87263 0.85144,0.71617 1.75063,1.13791 2.94424,1.14587 h 0.0159 c 1.12995,0 1.94957,-0.22281 2.58616,-0.53315 0.93898,-0.44562 1.496,-1.11404 1.84612,-1.67902 0.17506,-0.28646 0.28647,-0.54906 0.35013,-0.72412 l 0.0637,-0.18302 0.008,-0.0239 0.66843,-2.92038 1.97344,2.26787 0.0637,0.0637 c 0.14323,0.15914 0.5411,0.58885 0.96285,0.98672 0.20689,0.19893 0.4297,0.38195 0.60476,0.50927 l 0.22281,0.15119 0.0477,0.0239 c 0.4297,0.13528 1.10608,0.23873 1.79838,0.23873 0.62068,0 1.27319,-0.0796 1.8302,-0.23077 0.55702,-0.15915 0.99468,-0.38991 1.25728,-0.62863 0.15915,-0.14324 0.36604,-0.42175 0.5411,-0.77983 0.25464,-0.53315 0.43766,-1.22544 0.54111,-1.75063 0.0477,-0.27851 0.0875,-0.50132 0.10344,-0.66047 l 0.0239,-0.18302 0.008,-0.0398 0.10345,-1.39255 1.38459,-0.0239 c 0.10345,0 1.67901,-0.0796 3.03178,-0.62068 0.67638,-0.25463 1.2891,-0.62068 1.6631,-1.04242 0.374,-0.43766 0.58885,-0.86736 0.5968,-1.63923 v -0.28646 c -0.0716,-0.74004 -0.23872,-1.22545 -0.46948,-1.57557 -0.31034,-0.50928 -0.76392,-0.81166 -1.36868,-1.03447 -0.59681,-0.21485 -1.31298,-0.29442 -1.9257,-0.33421 h -0.11936 c -0.55702,-0.008 -1.51986,0.19098 -2.27582,0.40583 -0.38991,0.10345 -0.72412,0.21485 -0.96285,0.29442 l -0.27851,0.0955 -0.0955,0.0318 -0.88327,0.33421 -0.69229,-0.66842 c -0.0318,-0.0159 -0.64456,-0.58885 -1.48804,-1.11404 -0.83553,-0.52519 -1.88591,-0.9708 -2.62595,-0.95489 h -0.0239 c -0.38196,0.008 -0.74004,0.12732 -1.12996,0.35013 -0.58885,0.32625 -1.15382,0.92306 -1.53578,1.43233 -0.19893,0.2626 -0.35012,0.49336 -0.44561,0.66047 l -0.10345,0.18302 -0.0318,0.0398 -0.6923,1.35276 -1.36071,-0.6923 -0.0318,-0.0159 c -0.15915,-0.0796 -1.03447,-0.50928 -2.10872,-0.89919 -1.07425,-0.38991 -2.38723,-0.74004 -3.23071,-0.72413 -0.17507,0 -0.32626,0.008 -0.44562,0.0318 -0.89123,0.14324 -1.59148,0.52519 -2.18829,1.03447 -0.90714,0.77187 -1.55965,1.90978 -1.95752,2.86467 -0.19098,0.47744 -0.32626,0.89919 -0.40583,1.20157 -0.0318,0.0796 -0.0398,0.11936 -0.0478,0.17506 0.14324,0.71617 0.60477,2.72144 1.55966,4.60735"
           style="fill:#228748;fill-opacity:1;fill-rule:nonzero;stroke:none;stroke-width:7.95742" /><path
           id="path1243"
           d="m 284.95707,658.99183 c -1.01059,0.70026 -1.81429,1.20953 -2.27582,1.71881 -0.45357,0.52519 -0.70025,0.95489 -0.79574,2.0371 l -0.0159,0.15914 c -0.0159,0.68434 0.14323,1.11404 0.38195,1.50396 0.35809,0.56497 1.02651,1.01855 1.65515,1.2891 0.29442,0.13527 0.58884,0.22281 0.78778,0.28647 l 0.23077,0.0557 0.0477,0.008 0.008,0.008 -0.0159,0.0716 -0.15119,2.71348 0.0239,0.23872 -0.008,-0.14323 0.0159,0.14323 c -0.008,0 -0.35808,0.0637 -0.67638,0.35013 -0.30238,0.28647 -0.72412,0.78778 -0.82757,2.19625 -0.0398,0.6525 0,1.51191 0.19098,2.57024 0.0955,0.52519 0.29442,0.86736 0.56497,1.16179 0.40583,0.44561 1.05834,0.77982 1.70289,0.9708 0.63659,0.20689 1.22544,0.2626 1.40051,0.27851 h 0.0477 l 1.69493,0.0478 -0.22281,1.68697 c -0.008,0 -0.008,0.0955 -0.0239,0.24668 -0.0398,0.55702 -0.0398,1.91774 0.34217,2.9522 0.19098,0.52519 0.44562,0.93898 0.77983,1.21749 0.32625,0.28646 0.72412,0.50131 1.47212,0.54906 0.22281,0.0239 0.4854,0.0239 0.77187,-0.008 1.12995,-0.12732 1.62331,-0.4297 1.87795,-0.70025 0.25464,-0.27056 0.38991,-0.64455 0.43766,-1.16974 0.0398,-0.61272 -0.0955,-1.37664 -0.27851,-1.94957 -0.0875,-0.28647 -0.18302,-0.53315 -0.24668,-0.6923 l -0.0796,-0.19097 -0.0159,-0.0398 v -0.008 l -1.05038,-2.19625 2.43497,0.008 v 0.008 c 0.0239,0 0.23077,-0.0159 0.51723,-0.0637 0.46949,-0.0875 1.12996,-0.29443 1.59945,-0.6923 0.46948,-0.39787 0.85144,-0.89123 0.94693,-2.06893 0.10344,-1.57556 -0.0955,-2.68165 -0.39787,-3.46943 -0.45358,-1.16974 -1.09813,-1.67902 -1.67106,-1.98936 -0.28647,-0.15119 -0.54906,-0.23872 -0.72413,-0.27851 l -0.18302,-0.0398 -0.0318,-0.0159 -3.58879,-0.28646 2.72939,-2.37927 c 0.0159,-0.0239 0.49336,-0.44562 0.94694,-1.02651 0.44561,-0.58885 0.81961,-1.32093 0.82757,-1.72676 v -0.0477 c 0,-0.49336 -0.0875,-0.73209 -0.27056,-1.00264 -0.25463,-0.39787 -0.88327,-0.8594 -1.79837,-1.29706 -0.90715,-0.44561 -2.02914,-0.86736 -3.14318,-1.47212 -1.16974,-0.62864 -2.15646,-1.48008 -2.91242,-2.16442 -0.62068,0.75596 -1.5517,1.59944 -3.03178,2.64186"
           style="fill:#228748;fill-opacity:1;fill-rule:nonzero;stroke:none;stroke-width:7.95742" /><path
           id="path1241"
           d="m 286.11876,619.12494 c -0.68434,0.46949 -1.32889,0.95489 -1.74268,1.36868 -0.20689,0.20689 -0.36604,0.38196 -0.4297,0.49336 l -0.0398,0.0637 c -0.008,0.26259 0.0477,0.45357 0.20689,0.71617 0.23872,0.38991 0.77983,0.81961 1.25727,1.10608 0.23872,0.14323 0.47745,0.23872 0.62864,0.3183 l 0.18302,0.0637 0.0239,0.0239 h 0.008 v 0.008 l 3.20684,1.15383 -2.99199,1.61536 c -0.0318,0.008 -0.78779,0.44561 -1.48804,1.16178 -0.35013,0.35013 -0.6923,0.77187 -0.93898,1.22544 -0.24668,0.45357 -0.40582,0.92306 -0.4297,1.44029 l -0.008,0.0557 v 0.008 l 0.0477,0.2626 c 0.0557,0.13528 0.21485,0.34217 0.53315,0.55702 0.46153,0.32625 1.19361,0.61272 1.79042,0.77983 0.29442,0.0875 0.55702,0.14323 0.73208,0.17506 l 0.21485,0.0398 0.0557,0.008 1.45621,0.21485 -0.15119,1.46417 -0.0159,0.19098 c -0.0398,0.54906 -0.0637,2.2599 0.38196,3.70815 0.20689,0.71617 0.52519,1.36072 0.93102,1.79838 0.42174,0.43766 0.88327,0.73208 1.6631,0.85144 l 0.1671,0.0159 c 0.38992,0.0159 0.59681,-0.0557 0.84349,-0.19894 0.35809,-0.23076 0.71617,-0.71616 0.93102,-1.19361 0.1114,-0.23076 0.19098,-0.44561 0.23872,-0.60476 l 0.0478,-0.15915 0.0159,-0.0318 0.33421,-1.46417 1.46417,0.31034 h 0.008 c 0.0875,0.0159 0.5411,0.10345 1.10608,0.13528 0.50131,0.0398 1.07425,0.0159 1.47212,-0.0796 0.19893,-0.0477 0.35013,-0.11141 0.4297,-0.15915 l 0.10345,-0.0875 c 0.58885,-0.96285 0.81165,-1.78247 0.85144,-2.48272 0.0637,-1.16178 -0.35013,-2.13259 -0.83553,-2.85671 -0.24668,-0.35013 -0.49336,-0.6366 -0.67638,-0.82757 l -0.21485,-0.19098 -0.0477,-0.0478 -1.41642,-1.12995 1.36867,-1.20953 c 0.0239,-0.0159 0.49336,-0.45357 0.94693,-1.03446 0.45358,-0.59681 0.81166,-1.34481 0.82758,-1.78246 0.008,-0.21485 -0.0318,-0.35809 -0.13528,-0.53315 -0.21485,-0.36604 -0.45357,-0.60477 -0.77187,-0.81166 -0.47745,-0.3183 -1.12995,-0.54906 -1.90182,-0.77187 -0.76392,-0.23076 -1.63127,-0.4297 -2.49863,-0.92306 -1.6631,-0.95489 -3.08748,-2.29174 -4.13786,-3.41373 -0.35013,-0.36604 -0.64455,-0.70025 -0.89919,-0.99468 -0.74004,0.41379 -1.76655,1.01855 -2.70552,1.65514"
           style="fill:#228748;fill-opacity:1;fill-rule:nonzero;stroke:none;stroke-width:7.95742" /><path
           id="path1239"
           d="m 301.96194,610.45934 c 1.91774,0.008 3.72407,-0.2228 5.17232,-0.72412 -0.0318,-0.39787 -0.0477,-0.86736 -0.0477,-1.39255 0,-1.26523 0.1114,-2.88058 0.58885,-4.54369 0.11936,-0.39787 0.26259,-0.80369 0.42174,-1.20157 -0.0637,0.0796 -0.1114,0.16711 -0.17506,0.23873 -1.20953,1.24931 -2.8408,1.79837 -4.51982,2.1485 -1.67901,0.34217 -3.45352,0.4297 -4.99726,0.4297 -1.25727,0 -2.33948,-0.0637 -3.10339,-0.11936 -2.0928,1.7188 -4.05033,2.64982 -5.6259,3.15114 0.0398,0.0318 0.0716,0.0637 0.10345,0.0875 1.65514,0.47744 7.19351,1.94161 12.18281,1.92569"
           style="fill:#228748;fill-opacity:1;fill-rule:nonzero;stroke:none;stroke-width:7.95742" /><path
           id="path1237"
           d="m 309.78411,587.74897 c 0.54906,-0.52519 1.0663,-1.13791 1.43234,-1.78246 0.35808,-0.65251 0.56498,-1.31298 0.56498,-2.00527 -0.008,-0.58885 -0.14324,-1.2334 -0.57294,-2.01323 -0.58089,-1.04242 -1.15382,-1.6631 -1.6074,-1.99731 -0.46949,-0.33421 -0.8037,-0.40583 -1.16178,-0.42174 -0.43766,0 -0.97081,0.18302 -1.56761,0.55702 -0.87532,0.56497 -1.76655,1.52782 -2.38723,2.35539 -0.3183,0.40583 -0.56498,0.77187 -0.748,1.04242 l -0.19097,0.31034 -0.0478,0.0716 v 0.0239 l -0.51723,0.88328 -1.01855,-0.13528 -0.0477,-0.008 c -0.23873,-0.0239 -1.40051,-0.15915 -2.55434,-0.15915 -0.5411,0 -1.08221,0.0318 -1.49599,0.0955 -0.20689,0.0398 -0.374,0.0875 -0.4854,0.11936 l -0.12732,0.0477 -0.008,0.008 c -0.32625,0.25463 -0.52519,0.5411 -0.67638,0.93101 -0.15915,0.39787 -0.23077,0.89123 -0.23077,1.44825 0,0.98672 0.23873,2.10076 0.50132,2.94425 0.14324,0.41379 0.27055,0.77187 0.374,1.02651 l 0.11936,0.27055 0.0239,0.0716 v 0.0159 l 0.68434,1.47212 -1.51191,0.58885 c -0.0398,0.0159 -0.82757,0.34217 -1.58352,0.8594 -0.36605,0.25464 -0.72413,0.55702 -0.97877,0.85145 -0.26259,0.28646 -0.38991,0.55702 -0.42174,0.74799 -0.0239,0.11937 -0.0398,0.27851 -0.0398,0.46949 0,0.49336 0.11141,1.19361 0.3183,1.91774 0.30238,1.09812 0.77983,2.26786 1.18566,3.14318 0.12731,0.28647 0.23872,0.52519 0.34216,0.73208 0.70821,0.0637 1.79838,0.12732 3.05565,0.12732 1.41642,0 3.01587,-0.0955 4.3925,-0.36604 1.36867,-0.27851 2.45884,-0.77187 2.90446,-1.25727 0.35808,-0.374 0.76391,-1.25727 0.9708,-2.37131 0.22281,-1.122 0.30238,-2.41906 0.30238,-3.62063 0,-1.03446 -0.0557,-1.9814 -0.1114,-2.67369 -0.0239,-0.34217 -0.0557,-0.61272 -0.0796,-0.8037 l -0.0159,-0.20689 -0.0159,-0.0637 -0.14324,-1.05834 0.93102,-0.50132 c 0.008,0 1.16974,-0.64455 2.24399,-1.68697"
           style="fill:#228748;fill-opacity:1;fill-rule:nonzero;stroke:none;stroke-width:7.95742" /><path
           id="path1235"
           d="m 308.09714,627.01088 c 0.77983,1.0265 2.14055,1.93365 3.31029,2.5225 0.2228,0.1114 0.43765,0.20689 0.63659,0.30238 l 3.36599,-8.88844 c -0.11936,-0.0557 -0.22281,-0.10344 -0.34217,-0.15915 -0.9151,-0.35808 -2.0928,-0.70821 -3.19888,-0.69229 -0.87532,0 -1.64719,0.19098 -2.36336,0.66047 -0.70025,0.47744 -1.39255,1.27318 -1.96548,2.76122 -0.19098,0.50132 -0.26259,0.94693 -0.26259,1.32889 0.008,0.78778 0.28646,1.47212 0.81961,2.16442"
           style="fill:#228748;fill-opacity:1;fill-rule:nonzero;stroke:none;stroke-width:7.95742" /><path
           id="path1233"
           d="m 315.85562,630.08244 c 0.91511,0.34217 2.06098,0.64455 3.05565,0.63659 0.6923,0 1.2891,-0.11936 1.75063,-0.39787 0.46949,-0.27851 0.89124,-0.67638 1.25728,-1.50395 0.20689,-0.49336 0.27851,-0.89123 0.27851,-1.24931 0,-0.65251 -0.23873,-1.22545 -0.72413,-1.83817 -0.70821,-0.90714 -1.97344,-1.72676 -3.0636,-2.2599 -0.17507,-0.0875 -0.32626,-0.1512 -0.47745,-0.21486 l -2.53046,6.65241 c 0.15119,0.0557 0.28647,0.11936 0.45357,0.17506"
           style="fill:#228748;fill-opacity:1;fill-rule:nonzero;stroke:none;stroke-width:7.95742" /><path
           id="path1231"
           d="m 310.21379,609.85495 c 0.008,0.11936 0.0159,0.21485 0.0239,0.29443 0.2228,0.36604 0.75595,1.19361 1.55965,1.96548 0.51723,0.51723 1.14587,1.00263 1.85408,1.33684 0.70025,0.35013 1.48804,0.57294 2.39518,0.57294 0.46949,0 0.96285,-0.0557 1.51191,-0.19098 2.33153,-0.59681 3.61267,-1.59148 4.33679,-2.42701 0.374,-0.4297 0.59681,-0.81166 0.72413,-1.08221 l 0.1114,-0.29443 0.008,-0.0239 v 0 h 0.0159 c 0.0239,-0.22281 0.0875,-0.46949 0.23076,-0.67638 0.28647,-0.42174 0.66842,-0.58089 0.87532,-0.64455 0.23076,-0.0637 0.374,-0.0637 0.4854,-0.0637 0.27851,0 0.4297,0.0318 0.58089,0.0716 0.50928,0.10344 1.11404,0.29442 1.88591,0.46949 0.75595,0.17506 1.63127,0.31829 2.45089,0.31829 0.81961,0 1.55965,-0.14323 2.16441,-0.44561 0.82757,-0.4297 1.28115,-1.02651 1.62332,-1.83021 0.32625,-0.81166 0.45357,-1.80633 0.44561,-2.71348 0.008,-0.73208 -0.0716,-1.40051 -0.14323,-1.87795 -0.0398,-0.23872 -0.0716,-0.4297 -0.10345,-0.55702 l -0.0318,-0.13528 v -0.0318 -0.008 l -0.31829,-1.21749 1.12995,-0.52519 c 0.0159,-0.0159 0.71617,-0.36604 1.33685,-0.9708 0.31829,-0.30239 0.60476,-0.65251 0.80369,-1.02651 0.19894,-0.38991 0.31034,-0.77187 0.31034,-1.24932 0,-0.5411 -0.15119,-1.21748 -0.72412,-2.13258 -0.41379,-0.64455 -0.81962,-1.00264 -1.21749,-1.21749 -0.38991,-0.22281 -0.81165,-0.3183 -1.29706,-0.3183 -1.15382,-0.0159 -2.69756,0.66843 -3.87526,1.43234 -0.58885,0.38196 -1.09812,0.77983 -1.44825,1.06629 -0.17506,0.14324 -0.31034,0.2626 -0.39787,0.34217 l -0.10345,0.0875 -0.0239,0.0239 -0.84348,0.78778 -0.99468,-0.58885 -0.008,-0.008 c -0.10345,-0.0478 -0.67638,-0.38196 -1.40846,-0.67639 -0.72413,-0.30238 -1.61536,-0.55701 -2.21217,-0.5411 -0.24668,0 -0.43765,0.0477 -0.54906,0.0796 l -0.21485,0.16711 c -1.05833,1.35276 -1.20157,3.05565 -1.19361,3.5888 v 0.15119 l 0.13528,1.69493 -1.69493,-0.0478 -0.19098,-0.008 h -0.54111 c -0.75595,0 -1.99731,0.0239 -3.11931,0.15119 -0.54906,0.0557 -1.07425,0.14323 -1.46416,0.23872 -0.19098,0.0557 -0.34217,0.1114 -0.43766,0.15915 l -0.0875,0.0318 c -0.97081,0.8594 -1.57557,2.02118 -1.95753,3.29437 -0.36604,1.27319 -0.46948,2.61799 -0.46948,3.69224 0,0.62068 0.0318,1.14587 0.0716,1.51191"
           style="fill:#228748;fill-opacity:1;fill-rule:nonzero;stroke:none;stroke-width:7.95742" /><path
           id="path1229"
           d="m 278.79008,693.28846 c -1.16179,1.04242 -2.34744,1.86999 -3.23867,2.83284 -0.89124,0.97876 -1.5517,2.02914 -1.82225,3.77182 -0.0875,0.52519 -0.11936,0.9708 -0.11936,1.3448 0.008,1.19362 0.30238,1.59944 0.42174,1.75859 l 0.11936,0.0955 3.86731,0.94693 -3.65246,1.87 c 0,-0.008 -0.66047,0.35808 -1.25727,0.99468 -0.58885,0.66842 -1.10608,1.51191 -1.10608,2.68165 v 0.0477 c 0.008,1.496 0.34217,2.49067 0.75595,3.20684 0.61272,1.06629 1.51191,1.58353 2.33153,1.87795 0.41378,0.14323 0.79574,0.21485 1.06629,0.25464 l 0.31034,0.0318 h 0.0637 l 2.22808,-0.12732 -0.748,2.15646 c -0.008,0 -0.42175,1.28114 -0.42175,2.53046 0,0.82757 0.19098,1.57557 0.54111,1.99731 0.17506,0.23077 0.39787,0.41379 0.75595,0.56498 0.36605,0.15915 0.89919,0.27851 1.65515,0.27851 l 0.35808,-0.0159 c 0.60477,-0.0318 0.96285,-0.18302 1.28115,-0.42174 0.46948,-0.35013 0.8594,-1.03446 1.10608,-1.95753 0.25463,-0.9151 0.34217,-1.99731 0.33421,-2.96811 0.008,-0.71617 -0.0398,-1.37664 -0.0875,-1.84612 -0.0239,-0.22281 -0.0478,-0.41379 -0.0637,-0.53315 l -0.0239,-0.13528 -0.008,-0.0318 -0.29443,-1.79042 h 1.77451 c 0.008,0.008 0.50927,-0.0477 0.87531,-0.32625 0.19098,-0.15119 0.36605,-0.32625 0.53315,-0.66047 0.15119,-0.35012 0.29443,-0.8594 0.29443,-1.65514 l -0.008,-0.26259 c 0,-0.49336 -0.34217,-1.15383 -0.78779,-1.67106 -0.2228,-0.25464 -0.43765,-0.46949 -0.60476,-0.61272 l -0.18302,-0.15915 -0.0398,-0.0398 -1.65514,-1.20953 1.63923,-1.2334 v -0.008 c 0.0398,-0.0159 0.77187,-0.60477 1.4562,-1.48804 0.71617,-0.88327 1.31298,-2.04506 1.33685,-3.17501 v -0.24668 c 0,-1.0663 -0.17506,-1.75063 -0.4297,-2.25991 -0.36604,-0.75595 -0.95489,-1.25727 -1.87795,-1.86999 -0.8594,-0.57294 -1.9814,-1.20953 -3.05565,-2.23604 v 0.008 c -0.0318,-0.0318 -0.0477,-0.0477 -0.0796,-0.0716 -0.008,-0.0239 -0.0239,-0.0318 -0.0398,-0.0477 v 0 c -0.70821,-0.61272 -1.29706,-1.33685 -1.7745,-2.02119 -0.45358,0.56498 -1.0106,1.19362 -1.72676,1.83021"
           style="fill:#228748;fill-opacity:1;fill-rule:nonzero;stroke:none;stroke-width:7.95742" /><path
           id="path1227"
           d="m 296.6704,706.02033 c 0.23872,0.34217 0.47744,0.64455 0.68433,0.93102 l 7.04232,-6.39777 c -0.26259,-0.31033 -0.56498,-0.66046 -0.9151,-0.99467 -0.52519,-0.50928 -1.15383,-0.99468 -1.79838,-1.33685 -0.66047,-0.34217 -1.32889,-0.5411 -2.02118,-0.5411 -0.96285,0.008 -2.06098,0.34217 -3.44557,1.59148 -0.92306,0.87532 -1.16178,1.62331 -1.17769,2.53046 -0.0239,1.31297 0.75595,2.96016 1.63127,4.21743"
           style="fill:#228748;fill-opacity:1;fill-rule:nonzero;stroke:none;stroke-width:7.95742" /><path
           id="path1225"
           d="m 306.60921,710.53219 c 0.45358,-0.374 0.70821,-0.73208 0.86736,-1.07425 0.15915,-0.35013 0.23872,-0.70821 0.23872,-1.10608 0.0159,-1.12996 -0.70025,-2.65778 -1.52782,-3.81161 -0.19894,-0.28647 -0.40583,-0.54906 -0.58885,-0.77983 l -5.28373,4.77446 c 0.27056,0.31034 0.59681,0.66046 0.95489,1.00263 0.51724,0.49336 1.11404,0.95489 1.71085,1.27319 0.60476,0.3183 1.18565,0.49336 1.7188,0.4854 z"
           style="fill:#228748;fill-opacity:1;fill-rule:nonzero;stroke:none;stroke-width:7.95742" /><path
           id="path1223"
           d="m 307.47664,672.90164 c -0.36604,0.62864 -0.59681,1.25728 -0.65251,1.71085 l -0.0159,0.33421 c 0,0.47745 0.11936,0.93102 0.32625,1.38459 0.3183,0.68434 0.84349,1.32093 1.29706,1.77451 0.22281,0.2228 0.42174,0.39787 0.56498,0.51723 l 0.1671,0.11936 0.0318,0.0318 1.40847,0.98672 -1.15383,1.27319 c -0.0159,0.0318 -0.57293,0.66046 -1.09017,1.61535 -0.51723,0.96285 -0.99467,2.22012 -0.98672,3.45352 0,0.66842 0.12732,1.32093 0.42175,1.99731 0.46153,1.00264 0.94693,1.48804 1.36867,1.75859 0.42175,0.2626 0.82758,0.35809 1.24932,0.35809 0.38196,0 0.75595,-0.0875 1.01855,-0.17507 l 0.30238,-0.11936 0.0637,-0.0239 h 0.008 l 1.86203,-1.00263 0.35809,2.10871 c 0.0159,0.11141 0.30238,1.6074 0.99467,2.94425 0.35013,0.66046 0.78779,1.26523 1.26523,1.65514 0.49336,0.39787 0.97081,0.60476 1.63923,0.60476 0.23077,0 0.49336,-0.0318 0.79574,-0.0955 0.90715,-0.23872 1.27319,-0.56497 1.53579,-0.95489 0.25463,-0.39787 0.38991,-0.98672 0.38195,-1.6631 0.008,-0.73208 -0.15119,-1.54374 -0.33421,-2.1485 -0.0875,-0.30238 -0.1671,-0.54906 -0.23076,-0.71617 l -0.0716,-0.19097 -0.0239,-0.0477 v 0 l -0.73209,-1.69493 1.78247,-0.40583 c 0.0398,-0.008 0.67638,-0.19098 1.25727,-0.72412 0.5968,-0.54111 1.20953,-1.34481 1.37663,-2.99199 v 0 l 0.0159,-0.30238 c 0,-0.66047 -0.2069,-1.22545 -0.55702,-1.77451 -0.50928,-0.81961 -1.40847,-1.53578 -2.18829,-2.00527 -0.38992,-0.23076 -0.73209,-0.41378 -0.98672,-0.52519 l -0.28647,-0.12732 -0.0637,-0.0239 -0.008,-0.008 -0.008,0.008 -2.84876,-1.08221 2.54637,-1.63127 c 0.0478,-0.0398 0.23077,-0.21485 0.41379,-0.56498 0.21485,-0.39787 0.44562,-1.04242 0.44562,-2.08484 0,-0.43766 -0.0398,-0.95489 -0.14324,-1.5517 -0.0716,-0.35012 -0.21485,-0.65251 -0.46153,-0.9708 -0.40583,-0.54111 -1.16974,-1.08221 -2.14054,-1.50395 -1.45621,-0.64456 -3.29438,-1.03447 -4.74263,-1.2334 -0.73208,-0.10345 -1.36071,-0.15915 -1.80633,-0.18302 -0.0318,-0.008 -0.0557,-0.008 -0.0875,-0.008 -0.45357,0.41378 -1.18566,1.12995 -1.90183,1.97344 -0.50927,0.60476 -1.00263,1.28114 -1.37663,1.92569"
           style="fill:#228748;fill-opacity:1;fill-rule:nonzero;stroke:none;stroke-width:7.95742" /></g><path
         style="fill:#228748;fill-opacity:1;fill-rule:nonzero;stroke:none;stroke-width:7.95742"
         d="m 251.13413,524.10666 c 6.79564,5.97602 10.52767,14.02893 12.55681,20.72112 1.6631,5.48266 2.18033,10.0343 2.31561,11.74515 l 0.13528,1.58353 1.48008,-0.55702 c 3.73998,-1.43234 7.30491,-2.01323 10.59928,-2.01323 11.23587,0 19.57525,6.64445 22.19324,9.01576 -2.92833,0.84348 -10.19345,3.85934 -17.14028,10.36851 -4.26518,4.01054 -8.37916,9.35793 -11.21996,16.36046 l -1.19361,3.27845 1.12199,0.41379 -1.12995,-0.36604 c -1.34481,4.17764 -2.23604,8.86456 -2.45089,14.06076 -0.008,0.19098 -0.008,0.35012 -0.008,0.49336 -0.008,0.0318 -0.008,0.0637 -0.008,0.10344 0.008,3.92301 1.59148,10.54359 3.16705,17.99969 0.23872,1.12995 0.47745,2.28378 0.70821,3.42964 l 0.97876,5.10071 c 0.84349,4.84607 1.45621,9.67622 1.45621,13.96527 0,0.11936 -0.008,0.2626 -0.008,0.41379 -0.0637,6.64444 -0.89918,13.20931 -2.23603,19.5275 l -0.89919,3.99463 c -5.53836,22.54337 -16.79811,41.14781 -20.41874,46.76575 z"
         id="path1190" /></g></g></svg>
